<svg width="572" height="562" viewBox="0 0 572 562" fill="none" xmlns="http://www.w3.org/2000/svg">
<rect width="572" height="562" fill="white"/>
<path d="M239.453 110C187.815 110 145.953 151.638 145.953 203C145.953 254.362 187.815 296 239.453 296H332.953V203C332.953 151.638 291.092 110 239.453 110Z" fill="#0057B8"/>
<g filter="url(#filter0_d_2990_2)">
<path d="M332.453 296C384.091 296 425.953 254.363 425.953 203C425.953 151.637 384.091 110 332.453 110H238.953V203C238.953 254.363 280.814 296 332.453 296Z" fill="#0081E5"/>
</g>
<path d="M451.531 452.156C446.906 452.156 442.875 451.5 439.438 450.188C436 448.875 433.297 447.016 431.328 444.609C429.391 442.234 428.281 439.438 428 436.219H441.688C442.062 438.188 443.125 439.656 444.875 440.625C446.656 441.625 448.969 442.125 451.812 442.125C455.219 442.125 457.859 441.328 459.734 439.734C461.641 438.172 462.594 435.688 462.594 432.281V423H461.938C460.875 425.344 459.125 427.312 456.688 428.906C454.281 430.469 451.188 431.25 447.406 431.25C443.469 431.25 439.938 430.328 436.812 428.484C433.688 426.609 431.219 423.797 429.406 420.047C427.594 416.297 426.688 411.688 426.688 406.219C426.688 400.656 427.609 395.938 429.453 392.062C431.297 388.188 433.781 385.281 436.906 383.344C440.062 381.406 443.562 380.438 447.406 380.438C451.25 380.438 454.344 381.328 456.688 383.109C459.031 384.891 460.781 387.062 461.938 389.625H462.5V381.094H476.281V432.562C476.281 436.781 475.234 440.359 473.141 443.297C471.047 446.234 468.141 448.438 464.422 449.906C460.703 451.406 456.406 452.156 451.531 452.156ZM451.719 420.844C455.156 420.844 457.828 419.578 459.734 417.047C461.641 414.484 462.594 410.938 462.594 406.406C462.594 401.812 461.641 398.188 459.734 395.531C457.828 392.844 455.156 391.5 451.719 391.5C448.281 391.5 445.625 392.859 443.75 395.578C441.875 398.266 440.938 401.875 440.938 406.406C440.938 410.875 441.859 414.406 443.703 417C445.578 419.562 448.25 420.844 451.719 420.844Z" fill="#0057B8"/>
<path d="M385.156 432H371.281V381.094H384.5V390H385.062C386.25 387 388.172 384.656 390.828 382.969C393.484 381.281 396.656 380.438 400.344 380.438C403.875 380.438 406.969 381.203 409.625 382.734C412.281 384.266 414.328 386.484 415.766 389.391C417.203 392.266 417.906 395.656 417.875 399.562V432H404.094V402C404.094 398.875 403.281 396.422 401.656 394.641C400.031 392.859 397.781 391.969 394.906 391.969C391.938 391.969 389.562 392.906 387.781 394.781C386.031 396.656 385.156 399.25 385.156 402.562V432Z" fill="#0057B8"/>
<path d="M346.625 381.094H360.5V432H346.625V381.094ZM353.562 374.438C352.188 374.438 350.906 374.125 349.719 373.5C348.562 372.844 347.641 371.984 346.953 370.922C346.297 369.828 345.969 368.656 345.969 367.406C345.969 366.125 346.297 364.938 346.953 363.844C347.641 362.75 348.562 361.891 349.719 361.266C350.906 360.609 352.188 360.281 353.562 360.281C354.906 360.281 356.156 360.609 357.312 361.266C358.469 361.891 359.375 362.75 360.031 363.844C360.719 364.938 361.062 366.125 361.062 367.406C361.062 368.656 360.719 369.828 360.031 370.922C359.375 371.984 358.469 372.844 357.312 373.5C356.156 374.125 354.906 374.438 353.562 374.438Z" fill="#0057B8"/>
<path d="M279.594 432V364.125H303.781C310.562 364.125 316.422 365.484 321.359 368.203C326.297 370.891 330.078 374.781 332.703 379.875C335.359 384.969 336.688 391 336.688 397.969C336.688 405 335.359 411.078 332.703 416.203C330.047 421.297 326.234 425.203 321.266 427.922C316.297 430.641 310.375 432 303.5 432H279.594ZM302.938 419.906C309.5 419.906 314.422 418.125 317.703 414.562C320.984 411 322.625 405.469 322.625 397.969C322.625 390.531 320.984 385.047 317.703 381.516C314.453 377.984 309.562 376.219 303.031 376.219H293.656V419.906H302.938Z" fill="#0057B8"/>
<path d="M196.812 381.094H210.875L218.844 415.5H219.312L227.656 381.094H241.438L249.875 415.312H250.344L258.219 381.094H272.281L258.312 432H243.688L234.875 399.656H234.219L225.406 432H210.688L196.812 381.094Z" fill="#0057B8"/>
<path d="M144.688 417.75C144.688 412.5 146.453 408.656 149.984 406.219C153.516 403.781 158.062 402.406 163.625 402.094C167.062 401.875 171.281 401.656 176.281 401.438V397.312C176.219 395.188 175.484 393.531 174.078 392.344C172.672 391.156 170.688 390.562 168.125 390.562C165.812 390.562 163.922 391.062 162.453 392.062C160.984 393.062 160.062 394.438 159.688 396.188H146.469C146.75 393.188 147.781 390.5 149.562 388.125C151.375 385.75 153.891 383.875 157.109 382.5C160.328 381.125 164.125 380.438 168.5 380.438C172.375 380.438 175.938 381.047 179.188 382.266C182.469 383.484 185.094 385.391 187.062 387.984C189.062 390.547 190.062 393.781 190.062 397.688V432H176.938V424.969H176.562C175.219 427.438 173.297 429.391 170.797 430.828C168.328 432.234 165.281 432.938 161.656 432.938C158.344 432.938 155.406 432.375 152.844 431.25C150.312 430.094 148.312 428.375 146.844 426.094C145.406 423.812 144.688 421.031 144.688 417.75ZM158 417.375C158 419.281 158.688 420.766 160.062 421.828C161.469 422.859 163.312 423.375 165.594 423.375C167.656 423.375 169.5 422.953 171.125 422.109C172.781 421.266 174.062 420.109 174.969 418.641C175.875 417.172 176.312 415.562 176.281 413.812V410.109C174.812 410.141 173 410.219 170.844 410.344C168.688 410.469 167.031 410.594 165.875 410.719C163.438 410.969 161.516 411.656 160.109 412.781C158.703 413.906 158 415.438 158 417.375Z" fill="#0057B8"/>
<path d="M95 364.125H109.062V420.375H138.312V432H95V364.125Z" fill="#0057B8"/>
<defs>
<filter id="filter0_d_2990_2" x="229.953" y="106" width="196" height="194" filterUnits="userSpaceOnUse" color-interpolation-filters="sRGB">
<feFlood flood-opacity="0" result="BackgroundImageFix"/>
<feColorMatrix in="SourceAlpha" type="matrix" values="0 0 0 0 0 0 0 0 0 0 0 0 0 0 0 0 0 0 127 0" result="hardAlpha"/>
<feOffset dx="-5"/>
<feGaussianBlur stdDeviation="2"/>
<feComposite in2="hardAlpha" operator="out"/>
<feColorMatrix type="matrix" values="0 0 0 0 0 0 0 0 0 0 0 0 0 0 0 0 0 0 0.15 0"/>
<feBlend mode="normal" in2="BackgroundImageFix" result="effect1_dropShadow_2990_2"/>
<feBlend mode="normal" in="SourceGraphic" in2="effect1_dropShadow_2990_2" result="shape"/>
</filter>
</defs>
</svg>
